<svg xmlns="http://www.w3.org/2000/svg" viewBox="0 0 700 600" width="700" height="600">
  <!-- Background -->
  <rect width="700" height="600" fill="#f8f9fa"/>
  
  <!-- Title -->
  <text x="350" y="25" text-anchor="middle" font-family="Arial, sans-serif" font-size="20" font-weight="bold" fill="#333">Visão Geral da Arquitetura FPGA</text>
  
  <!-- FPGA Grid Container -->
  <rect x="130" y="70" width="360" height="400" rx="5" fill="#f3e5f5" stroke="#7b1fa2" stroke-width="2"/>
  
  <!-- Vertical Interconnect Lines -->
  <g stroke="#9c27b0" stroke-width="3" opacity="0.6">
    <line x1="175" y1="70" x2="175" y2="470"/>
    <line x1="255" y1="70" x2="255" y2="470"/>
    <line x1="335" y1="70" x2="335" y2="470"/>
    <line x1="415" y1="70" x2="415" y2="470"/>
  </g>
  
  <!-- Horizontal Interconnect Lines -->
  <g stroke="#9c27b0" stroke-width="3" opacity="0.6">
    <line x1="130" y1="130" x2="490" y2="130"/>
    <line x1="130" y1="210" x2="490" y2="210"/>
    <line x1="130" y1="290" x2="490" y2="290"/>
    <line x1="130" y1="370" x2="490" y2="370"/>
  </g>
  
  <!-- CLB Grid (4x4) -->
  <!-- Row 1 -->
  <rect x="150" y="90" width="50" height="60" rx="3" fill="#e1bee7" stroke="#7b1fa2" stroke-width="2"/>
  <text x="175" y="125" text-anchor="middle" font-family="Arial, sans-serif" font-size="12" font-weight="bold" fill="#4a148c">CLB</text>
  
  <rect x="230" y="90" width="50" height="60" rx="3" fill="#e1bee7" stroke="#7b1fa2" stroke-width="2"/>
  <text x="255" y="125" text-anchor="middle" font-family="Arial, sans-serif" font-size="12" font-weight="bold" fill="#4a148c">CLB</text>
  
  <rect x="310" y="90" width="50" height="60" rx="3" fill="#e1bee7" stroke="#7b1fa2" stroke-width="2"/>
  <text x="335" y="125" text-anchor="middle" font-family="Arial, sans-serif" font-size="12" font-weight="bold" fill="#4a148c">CLB</text>
  
  <rect x="390" y="90" width="50" height="60" rx="3" fill="#e1bee7" stroke="#7b1fa2" stroke-width="2"/>
  <text x="415" y="125" text-anchor="middle" font-family="Arial, sans-serif" font-size="12" font-weight="bold" fill="#4a148c">CLB</text>
  
  <!-- Row 2 -->
  <rect x="150" y="170" width="50" height="60" rx="3" fill="#e1bee7" stroke="#7b1fa2" stroke-width="2"/>
  <text x="175" y="205" text-anchor="middle" font-family="Arial, sans-serif" font-size="12" font-weight="bold" fill="#4a148c">CLB</text>
  
  <rect x="230" y="170" width="50" height="60" rx="3" fill="#e1bee7" stroke="#7b1fa2" stroke-width="2"/>
  <text x="255" y="205" text-anchor="middle" font-family="Arial, sans-serif" font-size="12" font-weight="bold" fill="#4a148c">CLB</text>
  
  <rect x="310" y="170" width="50" height="60" rx="3" fill="#e1bee7" stroke="#7b1fa2" stroke-width="2"/>
  <text x="335" y="205" text-anchor="middle" font-family="Arial, sans-serif" font-size="12" font-weight="bold" fill="#4a148c">CLB</text>
  
  <rect x="390" y="170" width="50" height="60" rx="3" fill="#e1bee7" stroke="#7b1fa2" stroke-width="2"/>
  <text x="415" y="205" text-anchor="middle" font-family="Arial, sans-serif" font-size="12" font-weight="bold" fill="#4a148c">CLB</text>
  
  <!-- Row 3 -->
  <rect x="150" y="250" width="50" height="60" rx="3" fill="#e1bee7" stroke="#7b1fa2" stroke-width="2"/>
  <text x="175" y="285" text-anchor="middle" font-family="Arial, sans-serif" font-size="12" font-weight="bold" fill="#4a148c">CLB</text>
  
  <rect x="230" y="250" width="50" height="60" rx="3" fill="#e1bee7" stroke="#7b1fa2" stroke-width="2"/>
  <text x="255" y="285" text-anchor="middle" font-family="Arial, sans-serif" font-size="12" font-weight="bold" fill="#4a148c">CLB</text>
  
  <rect x="310" y="250" width="50" height="60" rx="3" fill="#e1bee7" stroke="#7b1fa2" stroke-width="2"/>
  <text x="335" y="285" text-anchor="middle" font-family="Arial, sans-serif" font-size="12" font-weight="bold" fill="#4a148c">CLB</text>
  
  <rect x="390" y="250" width="50" height="60" rx="3" fill="#e1bee7" stroke="#7b1fa2" stroke-width="2"/>
  <text x="415" y="285" text-anchor="middle" font-family="Arial, sans-serif" font-size="12" font-weight="bold" fill="#4a148c">CLB</text>
  
  <!-- Row 4 -->
  <rect x="150" y="330" width="50" height="60" rx="3" fill="#e1bee7" stroke="#7b1fa2" stroke-width="2"/>
  <text x="175" y="365" text-anchor="middle" font-family="Arial, sans-serif" font-size="12" font-weight="bold" fill="#4a148c">CLB</text>
  
  <rect x="230" y="330" width="50" height="60" rx="3" fill="#e1bee7" stroke="#7b1fa2" stroke-width="2"/>
  <text x="255" y="365" text-anchor="middle" font-family="Arial, sans-serif" font-size="12" font-weight="bold" fill="#4a148c">CLB</text>
  
  <rect x="310" y="330" width="50" height="60" rx="3" fill="#e1bee7" stroke="#7b1fa2" stroke-width="2"/>
  <text x="335" y="365" text-anchor="middle" font-family="Arial, sans-serif" font-size="12" font-weight="bold" fill="#4a148c">CLB</text>
  
  <rect x="390" y="330" width="50" height="60" rx="3" fill="#e1bee7" stroke="#7b1fa2" stroke-width="2"/>
  <text x="415" y="365" text-anchor="middle" font-family="Arial, sans-serif" font-size="12" font-weight="bold" fill="#4a148c">CLB</text>
  
  <!-- I/O Blocks - Left Side -->
  <rect x="80" y="110" width="35" height="35" rx="3" fill="#b0bec5" stroke="#546e7a" stroke-width="2"/>
  <text x="97" y="132" text-anchor="middle" font-family="Arial, sans-serif" font-size="10" font-weight="bold" fill="#37474f">E/S</text>
  
  <rect x="80" y="190" width="35" height="35" rx="3" fill="#b0bec5" stroke="#546e7a" stroke-width="2"/>
  <text x="97" y="212" text-anchor="middle" font-family="Arial, sans-serif" font-size="10" font-weight="bold" fill="#37474f">E/S</text>
  
  <rect x="80" y="270" width="35" height="35" rx="3" fill="#b0bec5" stroke="#546e7a" stroke-width="2"/>
  <text x="97" y="292" text-anchor="middle" font-family="Arial, sans-serif" font-size="10" font-weight="bold" fill="#37474f">E/S</text>
  
  <rect x="80" y="350" width="35" height="35" rx="3" fill="#b0bec5" stroke="#546e7a" stroke-width="2"/>
  <text x="97" y="372" text-anchor="middle" font-family="Arial, sans-serif" font-size="10" font-weight="bold" fill="#37474f">E/S</text>
  
  <!-- I/O Blocks - Right Side -->
  <rect x="505" y="110" width="35" height="35" rx="3" fill="#b0bec5" stroke="#546e7a" stroke-width="2"/>
  <text x="522" y="132" text-anchor="middle" font-family="Arial, sans-serif" font-size="10" font-weight="bold" fill="#37474f">E/S</text>
  
  <rect x="505" y="190" width="35" height="35" rx="3" fill="#b0bec5" stroke="#546e7a" stroke-width="2"/>
  <text x="522" y="212" text-anchor="middle" font-family="Arial, sans-serif" font-size="10" font-weight="bold" fill="#37474f">E/S</text>
  
  <rect x="505" y="270" width="35" height="35" rx="3" fill="#b0bec5" stroke="#546e7a" stroke-width="2"/>
  <text x="522" y="292" text-anchor="middle" font-family="Arial, sans-serif" font-size="10" font-weight="bold" fill="#37474f">E/S</text>
  
  <rect x="505" y="350" width="35" height="35" rx="3" fill="#b0bec5" stroke="#546e7a" stroke-width="2"/>
  <text x="522" y="372" text-anchor="middle" font-family="Arial, sans-serif" font-size="10" font-weight="bold" fill="#37474f">E/S</text>
  
  <!-- I/O Blocks - Top -->
  <rect x="155" y="35" width="35" height="35" rx="3" fill="#b0bec5" stroke="#546e7a" stroke-width="2"/>
  <text x="172" y="57" text-anchor="middle" font-family="Arial, sans-serif" font-size="10" font-weight="bold" fill="#37474f">E/S</text>
  
  <rect x="237" y="35" width="35" height="35" rx="3" fill="#b0bec5" stroke="#546e7a" stroke-width="2"/>
  <text x="254" y="57" text-anchor="middle" font-family="Arial, sans-serif" font-size="10" font-weight="bold" fill="#37474f">E/S</text>
  
  <rect x="317" y="35" width="35" height="35" rx="3" fill="#b0bec5" stroke="#546e7a" stroke-width="2"/>
  <text x="334" y="57" text-anchor="middle" font-family="Arial, sans-serif" font-size="10" font-weight="bold" fill="#37474f">E/S</text>
  
  <rect x="397" y="35" width="35" height="35" rx="3" fill="#b0bec5" stroke="#546e7a" stroke-width="2"/>
  <text x="414" y="57" text-anchor="middle" font-family="Arial, sans-serif" font-size="10" font-weight="bold" fill="#37474f">E/S</text>
  
  <!-- I/O Blocks - Bottom -->
  <rect x="155" y="475" width="35" height="35" rx="3" fill="#b0bec5" stroke="#546e7a" stroke-width="2"/>
  <text x="172" y="497" text-anchor="middle" font-family="Arial, sans-serif" font-size="10" font-weight="bold" fill="#37474f">E/S</text>
  
  <rect x="237" y="475" width="35" height="35" rx="3" fill="#b0bec5" stroke="#546e7a" stroke-width="2"/>
  <text x="254" y="497" text-anchor="middle" font-family="Arial, sans-serif" font-size="10" font-weight="bold" fill="#37474f">E/S</text>
  
  <rect x="317" y="475" width="35" height="35" rx="3" fill="#b0bec5" stroke="#546e7a" stroke-width="2"/>
  <text x="334" y="497" text-anchor="middle" font-family="Arial, sans-serif" font-size="10" font-weight="bold" fill="#37474f">E/S</text>
  
  <rect x="397" y="475" width="35" height="35" rx="3" fill="#b0bec5" stroke="#546e7a" stroke-width="2"/>
  <text x="414" y="497" text-anchor="middle" font-family="Arial, sans-serif" font-size="10" font-weight="bold" fill="#37474f">E/S</text>
  
  <!-- Legend -->
  <rect x="50" y="530" width="520" height="55" rx="5" fill="#fff" stroke="#ddd" stroke-width="1"/>
  
  <rect x="70" y="545" width="20" height="20" rx="3" fill="#e1bee7" stroke="#7b1fa2" stroke-width="1.5"/>
  <text x="100" y="560" font-family="Arial, sans-serif" font-size="12" fill="#333">CLB - Bloco Lógico Configurável</text>
  
  <rect x="320" y="545" width="20" height="20" rx="3" fill="#b0bec5" stroke="#546e7a" stroke-width="1.5"/>
  <text x="350" y="560" font-family="Arial, sans-serif" font-size="12" fill="#333">Bloco E/S</text>
  
  <line x1="430" y1="555" x2="490" y2="555" stroke="#9c27b0" stroke-width="4" opacity="0.6"/>
  <text x="500" y="560" font-family="Arial, sans-serif" font-size="12" fill="#333">Interconexões</text>
</svg>