<svg xmlns="http://www.w3.org/2000/svg" viewBox="0 0 590 558" width="590" height="558">
  <!-- Background -->
  <rect width="590" height="558" fill="#f8f9fa"/>

  <!-- Title -->
  <text x="295" y="22" text-anchor="middle" font-family="Arial, sans-serif" font-size="20" font-weight="bold" fill="#333">FPGA Architecture Overview</text>

  <!-- Horizontal Interconnect Lines (through CLB row centers y=135,215,295,375) -->
  <g stroke="#9c27b0" stroke-width="3" opacity="0.6">
    <line x1="80" y1="135" x2="510" y2="135"/>
    <line x1="80" y1="215" x2="510" y2="215"/>
    <line x1="80" y1="295" x2="510" y2="295"/>
    <line x1="80" y1="375" x2="510" y2="375"/>
  </g>

  <!-- Vertical Interconnect Lines (through CLB col centers x=175,255,335,415) -->
  <g stroke="#9c27b0" stroke-width="3" opacity="0.6">
    <line x1="175" y1="35" x2="175" y2="475"/>
    <line x1="255" y1="35" x2="255" y2="475"/>
    <line x1="335" y1="35" x2="335" y2="475"/>
    <line x1="415" y1="35" x2="415" y2="475"/>
  </g>

  <!-- CLB Array border frame
       Top:    y=90  → gap to top I/O bottom (70)     = 20px  ✓
               gap to CLB row 1 top (105)             = 15px  ✓
       Bottom: y=420 → gap to CLB row 4 bottom (405)  = 15px  ✓
               gap to bottom I/O top (440)             = 20px  ✓
       Left:   x=135 → gap to left I/O right (115)    = 20px  ✓
               gap to CLB col 1 left (150)             = 15px  ✓
       Right:  x=455 → gap to CLB col 4 right (440)   = 15px  ✓
               gap to right I/O left (475)             = 20px  ✓  -->
  <rect x="135" y="90" width="320" height="330" rx="3" fill="none" stroke="#9c27b0" stroke-width="2.5" opacity="0.6"/>

  <!-- I/O Blocks - Left Side (centered on CLB row centers y=135,215,295,375) -->
  <rect x="80" y="118" width="35" height="35" rx="3" fill="#b0bec5" stroke="#546e7a" stroke-width="2"/>
  <text x="97" y="140" text-anchor="middle" font-family="Arial, sans-serif" font-size="10" font-weight="bold" fill="#37474f">I/O</text>

  <rect x="80" y="198" width="35" height="35" rx="3" fill="#b0bec5" stroke="#546e7a" stroke-width="2"/>
  <text x="97" y="220" text-anchor="middle" font-family="Arial, sans-serif" font-size="10" font-weight="bold" fill="#37474f">I/O</text>

  <rect x="80" y="278" width="35" height="35" rx="3" fill="#b0bec5" stroke="#546e7a" stroke-width="2"/>
  <text x="97" y="300" text-anchor="middle" font-family="Arial, sans-serif" font-size="10" font-weight="bold" fill="#37474f">I/O</text>

  <rect x="80" y="358" width="35" height="35" rx="3" fill="#b0bec5" stroke="#546e7a" stroke-width="2"/>
  <text x="97" y="380" text-anchor="middle" font-family="Arial, sans-serif" font-size="10" font-weight="bold" fill="#37474f">I/O</text>

  <!-- I/O Blocks - Right Side -->
  <rect x="475" y="118" width="35" height="35" rx="3" fill="#b0bec5" stroke="#546e7a" stroke-width="2"/>
  <text x="492" y="140" text-anchor="middle" font-family="Arial, sans-serif" font-size="10" font-weight="bold" fill="#37474f">I/O</text>

  <rect x="475" y="198" width="35" height="35" rx="3" fill="#b0bec5" stroke="#546e7a" stroke-width="2"/>
  <text x="492" y="220" text-anchor="middle" font-family="Arial, sans-serif" font-size="10" font-weight="bold" fill="#37474f">I/O</text>

  <rect x="475" y="278" width="35" height="35" rx="3" fill="#b0bec5" stroke="#546e7a" stroke-width="2"/>
  <text x="492" y="300" text-anchor="middle" font-family="Arial, sans-serif" font-size="10" font-weight="bold" fill="#37474f">I/O</text>

  <rect x="475" y="358" width="35" height="35" rx="3" fill="#b0bec5" stroke="#546e7a" stroke-width="2"/>
  <text x="492" y="380" text-anchor="middle" font-family="Arial, sans-serif" font-size="10" font-weight="bold" fill="#37474f">I/O</text>

  <!-- I/O Blocks - Top (centered on CLB col centers x=175,255,335,415) -->
  <rect x="158" y="35" width="35" height="35" rx="3" fill="#b0bec5" stroke="#546e7a" stroke-width="2"/>
  <text x="175" y="57" text-anchor="middle" font-family="Arial, sans-serif" font-size="10" font-weight="bold" fill="#37474f">I/O</text>

  <rect x="238" y="35" width="35" height="35" rx="3" fill="#b0bec5" stroke="#546e7a" stroke-width="2"/>
  <text x="255" y="57" text-anchor="middle" font-family="Arial, sans-serif" font-size="10" font-weight="bold" fill="#37474f">I/O</text>

  <rect x="318" y="35" width="35" height="35" rx="3" fill="#b0bec5" stroke="#546e7a" stroke-width="2"/>
  <text x="335" y="57" text-anchor="middle" font-family="Arial, sans-serif" font-size="10" font-weight="bold" fill="#37474f">I/O</text>

  <rect x="398" y="35" width="35" height="35" rx="3" fill="#b0bec5" stroke="#546e7a" stroke-width="2"/>
  <text x="415" y="57" text-anchor="middle" font-family="Arial, sans-serif" font-size="10" font-weight="bold" fill="#37474f">I/O</text>

  <!-- I/O Blocks - Bottom (y=440 → 20px gap from frame bottom at y=420) -->
  <rect x="158" y="440" width="35" height="35" rx="3" fill="#b0bec5" stroke="#546e7a" stroke-width="2"/>
  <text x="175" y="462" text-anchor="middle" font-family="Arial, sans-serif" font-size="10" font-weight="bold" fill="#37474f">I/O</text>

  <rect x="238" y="440" width="35" height="35" rx="3" fill="#b0bec5" stroke="#546e7a" stroke-width="2"/>
  <text x="255" y="462" text-anchor="middle" font-family="Arial, sans-serif" font-size="10" font-weight="bold" fill="#37474f">I/O</text>

  <rect x="318" y="440" width="35" height="35" rx="3" fill="#b0bec5" stroke="#546e7a" stroke-width="2"/>
  <text x="335" y="462" text-anchor="middle" font-family="Arial, sans-serif" font-size="10" font-weight="bold" fill="#37474f">I/O</text>

  <rect x="398" y="440" width="35" height="35" rx="3" fill="#b0bec5" stroke="#546e7a" stroke-width="2"/>
  <text x="415" y="462" text-anchor="middle" font-family="Arial, sans-serif" font-size="10" font-weight="bold" fill="#37474f">I/O</text>

  <!-- CLB Grid (4x4) — shifted down 15px so routing channel is visible inside frame -->
  <!-- Row 1 (y=105, center y=135) -->
  <rect x="150" y="105" width="50" height="60" rx="3" fill="#f48fb1" stroke="#c2185b" stroke-width="2"/>
  <text x="175" y="140" text-anchor="middle" font-family="Arial, sans-serif" font-size="12" font-weight="bold" fill="#880e4f">CLB</text>

  <rect x="230" y="105" width="50" height="60" rx="3" fill="#f48fb1" stroke="#c2185b" stroke-width="2"/>
  <text x="255" y="140" text-anchor="middle" font-family="Arial, sans-serif" font-size="12" font-weight="bold" fill="#880e4f">CLB</text>

  <rect x="310" y="105" width="50" height="60" rx="3" fill="#f48fb1" stroke="#c2185b" stroke-width="2"/>
  <text x="335" y="140" text-anchor="middle" font-family="Arial, sans-serif" font-size="12" font-weight="bold" fill="#880e4f">CLB</text>

  <rect x="390" y="105" width="50" height="60" rx="3" fill="#f48fb1" stroke="#c2185b" stroke-width="2"/>
  <text x="415" y="140" text-anchor="middle" font-family="Arial, sans-serif" font-size="12" font-weight="bold" fill="#880e4f">CLB</text>

  <!-- Row 2 (y=185, center y=215) -->
  <rect x="150" y="185" width="50" height="60" rx="3" fill="#f48fb1" stroke="#c2185b" stroke-width="2"/>
  <text x="175" y="220" text-anchor="middle" font-family="Arial, sans-serif" font-size="12" font-weight="bold" fill="#880e4f">CLB</text>

  <rect x="230" y="185" width="50" height="60" rx="3" fill="#f48fb1" stroke="#c2185b" stroke-width="2"/>
  <text x="255" y="220" text-anchor="middle" font-family="Arial, sans-serif" font-size="12" font-weight="bold" fill="#880e4f">CLB</text>

  <rect x="310" y="185" width="50" height="60" rx="3" fill="#f48fb1" stroke="#c2185b" stroke-width="2"/>
  <text x="335" y="220" text-anchor="middle" font-family="Arial, sans-serif" font-size="12" font-weight="bold" fill="#880e4f">CLB</text>

  <rect x="390" y="185" width="50" height="60" rx="3" fill="#f48fb1" stroke="#c2185b" stroke-width="2"/>
  <text x="415" y="220" text-anchor="middle" font-family="Arial, sans-serif" font-size="12" font-weight="bold" fill="#880e4f">CLB</text>

  <!-- Row 3 (y=265, center y=295) -->
  <rect x="150" y="265" width="50" height="60" rx="3" fill="#f48fb1" stroke="#c2185b" stroke-width="2"/>
  <text x="175" y="300" text-anchor="middle" font-family="Arial, sans-serif" font-size="12" font-weight="bold" fill="#880e4f">CLB</text>

  <rect x="230" y="265" width="50" height="60" rx="3" fill="#f48fb1" stroke="#c2185b" stroke-width="2"/>
  <text x="255" y="300" text-anchor="middle" font-family="Arial, sans-serif" font-size="12" font-weight="bold" fill="#880e4f">CLB</text>

  <rect x="310" y="265" width="50" height="60" rx="3" fill="#f48fb1" stroke="#c2185b" stroke-width="2"/>
  <text x="335" y="300" text-anchor="middle" font-family="Arial, sans-serif" font-size="12" font-weight="bold" fill="#880e4f">CLB</text>

  <rect x="390" y="265" width="50" height="60" rx="3" fill="#f48fb1" stroke="#c2185b" stroke-width="2"/>
  <text x="415" y="300" text-anchor="middle" font-family="Arial, sans-serif" font-size="12" font-weight="bold" fill="#880e4f">CLB</text>

  <!-- Row 4 (y=345, center y=375) -->
  <rect x="150" y="345" width="50" height="60" rx="3" fill="#f48fb1" stroke="#c2185b" stroke-width="2"/>
  <text x="175" y="380" text-anchor="middle" font-family="Arial, sans-serif" font-size="12" font-weight="bold" fill="#880e4f">CLB</text>

  <rect x="230" y="345" width="50" height="60" rx="3" fill="#f48fb1" stroke="#c2185b" stroke-width="2"/>
  <text x="255" y="380" text-anchor="middle" font-family="Arial, sans-serif" font-size="12" font-weight="bold" fill="#880e4f">CLB</text>

  <rect x="310" y="345" width="50" height="60" rx="3" fill="#f48fb1" stroke="#c2185b" stroke-width="2"/>
  <text x="335" y="380" text-anchor="middle" font-family="Arial, sans-serif" font-size="12" font-weight="bold" fill="#880e4f">CLB</text>

  <rect x="390" y="345" width="50" height="60" rx="3" fill="#f48fb1" stroke="#c2185b" stroke-width="2"/>
  <text x="415" y="380" text-anchor="middle" font-family="Arial, sans-serif" font-size="12" font-weight="bold" fill="#880e4f">CLB</text>

  <!-- Legend -->
  <rect x="30" y="492" width="530" height="52" rx="5" fill="#fff" stroke="#ddd" stroke-width="1"/>

  <rect x="50" y="506" width="20" height="20" rx="3" fill="#f48fb1" stroke="#c2185b" stroke-width="1.5"/>
  <text x="80" y="521" font-family="Arial, sans-serif" font-size="12" fill="#333">CLB - Configurable Logic Block</text>

  <rect x="300" y="506" width="20" height="20" rx="3" fill="#b0bec5" stroke="#546e7a" stroke-width="1.5"/>
  <text x="330" y="521" font-family="Arial, sans-serif" font-size="12" fill="#333">I/O Block</text>

  <line x1="410" y1="516" x2="460" y2="516" stroke="#9c27b0" stroke-width="4" opacity="0.6"/>
  <text x="470" y="521" font-family="Arial, sans-serif" font-size="12" fill="#333">Interconnects</text>
</svg>
